<svg width="12" height="16" viewBox="0 0 12 16" fill="none" xmlns="http://www.w3.org/2000/svg">
<path d="M9.31717 15.9998C9.07769 15.999 8.84087 15.9546 8.62091 15.8694C8.40096 15.7842 8.2024 15.66 8.03716 15.504L1.17488 9.10671C0.849142 8.80775 0.666687 8.40581 0.666687 7.98718C0.666687 7.56855 0.849142 7.16661 1.17488 6.86765L8.28605 0.470349C8.45181 0.32123 8.6486 0.202943 8.86517 0.12224C9.08174 0.0415375 9.31387 3.14244e-09 9.54828 0C9.7827 -3.14244e-09 10.0148 0.0415375 10.2314 0.12224C10.448 0.202943 10.6448 0.32123 10.8105 0.470349C10.9763 0.619467 11.1078 0.796497 11.1975 0.99133C11.2872 1.18616 11.3334 1.39498 11.3334 1.60587C11.3334 1.81676 11.2872 2.02558 11.1975 2.22041C11.1078 2.41524 10.9763 2.59227 10.8105 2.74139L4.9438 8.00317L10.5972 13.281C10.9283 13.5806 11.1142 13.986 11.1142 14.4085C11.1142 14.831 10.9283 15.2363 10.5972 15.536C10.429 15.6862 10.2291 15.8045 10.0092 15.8842C9.78942 15.9638 9.55412 16.0031 9.31717 15.9998Z" fill="#313131"/>
</svg>
