<svg width="12" height="12" viewBox="0 0 12 12" fill="none" xmlns="http://www.w3.org/2000/svg">
<path d="M10.9333 2.89324L9.10668 1.06657C8.86828 0.842636 8.55588 0.714144 8.2289 0.70554C7.90193 0.696935 7.5832 0.808818 7.33335 1.01991L1.33335 7.01991C1.11786 7.23722 0.983684 7.52204 0.953348 7.82657L0.666681 10.6066C0.657701 10.7042 0.670371 10.8026 0.703789 10.8948C0.737207 10.987 0.790549 11.0707 0.860015 11.1399C0.922308 11.2017 0.996186 11.2506 1.07741 11.2838C1.15864 11.3169 1.24561 11.3337 1.33335 11.3332H1.39335L4.17335 11.0799C4.47788 11.0496 4.76271 10.9154 4.98002 10.6999L10.98 4.69991C11.2129 4.45388 11.3387 4.12558 11.33 3.78693C11.3213 3.44828 11.1786 3.12691 10.9333 2.89324V2.89324ZM4.05335 9.74657L2.05335 9.93324L2.23335 7.93324L6.00002 4.21324L7.80002 6.01324L4.05335 9.74657ZM8.66668 5.11991L6.88002 3.33324L8.18002 1.99991L10 3.81991L8.66668 5.11991Z" fill="#313131"/>
</svg>
