<svg width="17" height="12" viewBox="0 0 17 12" fill="none" xmlns="http://www.w3.org/2000/svg">
<path d="M4.58401 10.8377C4.97425 11.2286 5.60741 11.229 5.99823 10.8388C6.38904 10.4486 6.38951 9.8154 5.99928 9.42458L4.58401 10.8377ZM1.87428 5.29344C1.48405 4.90262 0.850883 4.90215 0.460069 5.29239C0.0692539 5.68262 0.0687819 6.31578 0.459016 6.7066L1.87428 5.29344ZM0.459016 5.29344C0.0687819 5.68425 0.0692539 6.31742 0.460069 6.70765C0.850883 7.09789 1.48405 7.09741 1.87428 6.7066L0.459016 5.29344ZM5.99928 2.57545C6.38951 2.18464 6.38904 1.55147 5.99823 1.16124C5.60741 0.771005 4.97425 0.771477 4.58401 1.16229L5.99928 2.57545ZM1.16665 5.00002C0.614364 5.00002 0.166649 5.44773 0.166649 6.00002C0.166649 6.5523 0.614364 7.00002 1.16665 7.00002V5.00002ZM15.8333 7.00002C16.3856 7.00002 16.8333 6.5523 16.8333 6.00002C16.8333 5.44773 16.3856 5.00002 15.8333 5.00002V7.00002ZM5.99928 9.42458L1.87428 5.29344L0.459016 6.7066L4.58401 10.8377L5.99928 9.42458ZM1.87428 6.7066L5.99928 2.57545L4.58401 1.16229L0.459016 5.29344L1.87428 6.7066ZM1.16665 7.00002L15.8333 7.00002V5.00002L1.16665 5.00002V7.00002Z" fill="#88984A"/>
</svg>
